<svg width="1280" height="920" viewBox="0 0 1280 920" fill="none" xmlns="http://www.w3.org/2000/svg">
<g id="Frame 3" clip-path="url(#clip0_4_50)">
<rect width="1280" height="920" fill="white"/>
<g id="Group 2">
<path id="Vector" d="M902.35 -53.2778C964.658 -57.9737 1026.04 -49.8986 1091.51 -35.235C1176.56 -16.1863 1272.06 -28.9922 1340.53 44.8626C1409.73 119.518 1406.47 228.989 1425.57 325.128C1446.28 429.354 1501.18 551.32 1456.25 627.321C1411.36 703.26 1293.17 663.703 1210.9 688.286C1126.21 713.594 1063.68 807.365 967.939 773.235C871.655 738.911 796.542 625.487 745.82 522.491C701.522 432.539 718.554 341.527 709.424 248.294C700.88 161.037 654.164 57.1978 694.137 -5.28688C733.967 -67.5461 827.622 -47.6459 902.35 -53.2778Z" fill="#333333"/>
<g id="&#240;&#159;&#166;&#134; illustration &#34;sitting ball red purple&#34;">
<g id="Group">
<g id="Group_2">
<path id="Vector_2" fill-rule="evenodd" clip-rule="evenodd" d="M1138.76 81.5184C1142.02 77.5373 1144.23 72.6586 1143.86 67.1917C1142.8 51.4403 1121.68 54.9054 1117.57 62.8554C1113.46 70.8054 1113.95 90.9711 1119.26 92.392C1121.38 92.9587 1125.89 91.5706 1130.48 88.6978L1127.6 109.863H1144.61L1138.76 81.5184Z" fill="#B28B67"/>
<path id="Vector_3" fill-rule="evenodd" clip-rule="evenodd" d="M1127.27 53.6927C1129.51 53.3109 1135.55 53.0485 1136.66 53.0486C1137.37 53.0486 1138.15 53.2174 1138.57 52.5391C1138.91 51.9836 1138.79 51.0441 1138.89 50.3995C1139.01 49.6506 1139.18 48.9114 1139.35 48.1741C1139.84 46.076 1140.58 44.0799 1141.61 42.2059C1143.55 38.6899 1146.4 35.9358 1149.99 34.3333C1153.95 32.5638 1158.44 32.1586 1162.71 32.5175C1167.27 32.9015 1171.4 34.4656 1175.71 35.9375C1179.82 37.3402 1184.12 37.8923 1188.41 37.2073C1192.74 36.5173 1196.01 34.0825 1199.66 31.7715C1203.39 29.4057 1207.66 27.8584 1212.08 28.2141C1216.2 28.5462 1220 30.3137 1223.41 32.6748C1226.6 34.8838 1229.23 37.5417 1230.72 41.2823C1232.32 45.3062 1232.32 49.723 1229.69 53.2791C1225.88 58.4337 1218.8 59.7667 1212.92 59.6342C1209.52 59.5578 1206.17 58.9126 1202.96 57.7391C1198.67 56.174 1194.97 53.5212 1190.96 51.3689C1189.08 50.359 1187.13 49.5294 1185.09 48.9319C1183.12 48.3519 1181.17 48.0858 1179.38 49.3266C1177.48 50.6392 1175.78 51.9287 1173.61 52.7504C1171.53 53.5387 1169.33 53.9796 1167.12 53.9618C1162.81 53.9273 1158.56 52.5328 1154.37 51.5987C1150.95 50.8372 1147.3 50.0782 1143.82 50.8102C1142.37 51.1158 1140.25 51.7465 1139.72 53.3137C1148.55 54.975 1152.02 66.3119 1149.53 74.6343C1148.19 79.1262 1140.11 84.3772 1136.97 82.0157C1134.98 80.5197 1136.19 78.5556 1136.97 77.2591C1138.47 74.7761 1138.98 71.5867 1136.21 69.8581C1133.82 68.3672 1131.31 71.9077 1131.26 71.9038C1130.61 71.8501 1124.93 68.5189 1121.02 63.6578C1117.17 63.8951 1116.58 61.2553 1117.5 59.0964C1118.42 56.9376 1124.17 54.2206 1127.27 53.6927Z" fill="#191847"/>
</g>
<g id="Group_3">
<path id="Vector_4" d="M1151.7 299.023C1121.55 299.023 1097.11 274.803 1097.11 244.925C1097.11 215.047 1121.55 190.826 1151.7 190.826C1181.85 190.826 1206.29 215.047 1206.29 244.925C1206.29 274.803 1181.85 299.023 1151.7 299.023Z" fill="#C5CFD6"/>
<path id="Vector_5" fill-rule="evenodd" clip-rule="evenodd" d="M1048.54 290.676C1057.63 269.804 1064.2 251.629 1066.83 242.04C1071.35 225.621 1074.78 211.173 1075.65 205.777C1077.72 192.911 1059.73 192.162 1057.35 198.556C1053.75 208.234 1047.46 240.032 1039.91 288.062L1048.54 290.676ZM1153.91 225.172C1145.57 221.752 1116.39 211.049 1102.31 208.021C1098.27 207.151 1094.35 206.343 1090.66 205.612C1079.7 203.441 1074.03 223.961 1084.58 225.537C1110.86 229.464 1148.11 233.519 1151.3 233.974C1155.77 234.612 1159.15 227.322 1153.91 225.172Z" fill="#B28B67"/>
<path id="Vector_6" fill-rule="evenodd" clip-rule="evenodd" d="M1083.94 199.965L1129.02 176.14V170.954H1123.65C1080.04 182.491 1057.75 189.886 1056.8 193.136C1056.79 193.171 1056.78 193.206 1056.77 193.241C1056.75 193.271 1056.72 193.301 1056.7 193.331C1048.06 205.672 1042.88 265.922 1041.18 270.433L1057.75 272.998C1064.08 248.607 1084.35 231.616 1083.81 202.403C1083.96 201.547 1084 200.734 1083.94 199.965Z" fill="#1F28CF"/>
<path id="Vector_7" fill-rule="evenodd" clip-rule="evenodd" d="M1125.27 214.115C1129.39 213.258 1133.19 212.493 1136.44 211.901C1157.44 208.078 1163.56 196.41 1159.94 170.954H1121.26C1114.94 172.838 1082.1 187.135 1065.06 194.739C1053.79 199.772 1057.34 217.916 1063.73 222.637C1063.76 222.927 1063.88 223.124 1064.08 223.212C1098.43 237.993 1125.61 230.238 1134.69 232.716L1138.89 218.964L1125.27 214.115Z" fill="#2B44FF"/>
<g id="Group_4">
<path id="Vector_8" fill-rule="evenodd" clip-rule="evenodd" d="M1151.06 222.986C1153.31 223.21 1154.91 223.561 1155.85 224.039C1157 224.621 1158.58 225.669 1160.6 227.183L1143.07 264.495C1139.53 263.901 1138.13 262.497 1138.86 260.284C1139.6 258.07 1140.19 256.222 1140.64 254.74L1141.34 233.626C1141.35 233.22 1141.68 232.902 1142.07 232.916C1142.08 232.916 1142.09 232.917 1142.09 232.917L1145.22 233.121C1147 231.628 1148.17 230.276 1148.74 229.067C1149.2 228.085 1149.46 226.535 1149.51 224.417L1149.51 224.417C1149.52 223.604 1150.17 222.961 1150.96 222.98C1150.99 222.981 1151.03 222.983 1151.06 222.986Z" fill="#E4E4E4"/>
<path id="Vector_9" fill-rule="evenodd" clip-rule="evenodd" d="M1052.68 286.806C1053.47 289.005 1053.87 290.649 1053.87 291.741C1053.87 293.068 1053.65 295.005 1053.23 297.551H1013.24C1012.2 293.985 1012.8 292.059 1015.04 291.775C1017.28 291.491 1019.14 291.234 1020.62 291.005L1039.21 282.403C1039.56 282.237 1039.98 282.404 1040.14 282.775C1040.14 282.782 1040.15 282.788 1040.15 282.794L1041.34 285.803C1043.42 286.807 1045.1 287.309 1046.4 287.309C1047.45 287.309 1048.9 286.868 1050.76 285.985L1050.76 285.985C1051.47 285.646 1052.31 285.97 1052.64 286.709C1052.65 286.741 1052.66 286.774 1052.68 286.806Z" fill="#E4E4E4"/>
</g>
</g>
<g id="Group_5">
<path id="Vector_10" fill-rule="evenodd" clip-rule="evenodd" d="M1085.06 150.799L1059.37 139.086C1054.87 134.431 1050.53 130.892 1046.34 128.471C1045.08 128.057 1042.94 127.932 1045.23 131.396C1047.51 134.859 1049.76 138.609 1048.85 139.823C1047.94 141.037 1045.29 139.697 1044.25 141.671C1043.55 142.987 1048.01 144.562 1057.62 146.394L1076.86 161.708L1085.06 150.799ZM1188.92 154.025L1174.39 157.017C1189 185.285 1196.83 200.267 1197.89 201.963C1200.28 205.779 1198.05 212.773 1197.23 216.456C1202.39 217.702 1200.36 209.643 1206.88 211.326C1212.84 212.862 1217.89 216.803 1223.45 211.487C1224.13 210.834 1224.63 208.791 1222.3 207.743C1216.5 205.133 1207.93 200.245 1206.54 198.347C1204.64 195.759 1198.77 180.985 1188.92 154.025Z" fill="#B28B67"/>
<path id="Vector_11" fill-rule="evenodd" clip-rule="evenodd" d="M1134.9 97.5947L1128.77 96.503C1115.42 109.95 1109.97 142.257 1101.07 146.534C1092.66 150.577 1080.73 146.664 1066.56 141.382L1062.22 151.452C1075.1 165.92 1102.54 178.142 1113.66 171.165C1131.44 160.009 1135.55 120.163 1134.9 97.5947Z" fill="#DB2721"/>
<path id="Vector_12" fill-rule="evenodd" clip-rule="evenodd" d="M1161.63 177.578H1107.38C1104.91 177.578 1105.37 173.862 1105.73 171.987C1109.87 150.347 1126.01 127.021 1126.01 96.2174L1141.66 93.6702C1154.6 115.279 1159.07 141.884 1161.63 177.578Z" fill="#DDE3E9"/>
<path id="Vector_13" fill-rule="evenodd" clip-rule="evenodd" d="M1167.04 155.669C1178.1 176.377 1187.39 191.285 1194.92 200.395L1206.29 198.083C1198.97 150.927 1177.76 116.122 1142.66 93.6702H1142.49H1136.47C1122.42 143.38 1118.55 176.501 1124.85 193.035H1173.68C1172.91 180.937 1170.43 168.143 1167.04 155.669H1167.04Z" fill="#FF4133"/>
</g>
</g>
</g>
<g id="&#240;&#159;&#166;&#134; illustration &#34;sitting man purple blue&#34;">
<g id="Group_6">
<path id="Vector_14" fill-rule="evenodd" clip-rule="evenodd" d="M1050.81 466.648C1055.07 461.651 1057.95 455.527 1057.47 448.664C1056.08 428.892 1028.56 433.242 1023.2 443.221C1017.85 453.2 1018.49 478.513 1025.4 480.297C1028.16 481.008 1034.04 479.266 1040.03 475.66L1036.27 502.227H1058.44L1050.81 466.648Z" fill="#B28B67"/>
<path id="Vector_15" fill-rule="evenodd" clip-rule="evenodd" d="M1067.13 442.083C1067.85 441.373 1068.24 440.36 1068.58 439.398C1068.93 438.399 1069.27 437.389 1069.5 436.349C1069.97 434.271 1069.97 431.881 1068.49 430.268C1067.3 428.974 1065.52 428.394 1063.87 428.267C1062.78 428.183 1061.65 428.337 1060.6 428.683C1059.55 429.025 1058.65 429.709 1057.64 430.133C1057.6 427.894 1057.22 425.551 1056.09 423.638C1054.99 421.799 1053.25 420.766 1051.26 420.493C1049.23 420.213 1047.21 420.69 1045.39 421.676C1044.93 421.923 1044.48 422.182 1044.05 422.475C1043.69 422.72 1043.31 423.015 1042.88 423.115C1042.41 423.226 1042.17 422.952 1041.87 422.607C1041.51 422.201 1041.1 421.844 1040.67 421.527C1038.76 420.127 1036.26 419.551 1034.06 420.39C1033.04 420.777 1032.05 421.434 1031.36 422.339C1030.75 423.145 1030.31 424.425 1029.46 424.987C1029.1 425.225 1028.84 424.909 1028.52 424.676C1028.02 424.325 1027.55 423.937 1027.06 423.596C1026.36 423.116 1025.6 422.757 1024.79 422.57C1023.6 422.295 1021.95 422.359 1021.61 423.916C1021.49 424.5 1021.58 425.126 1021.63 425.715C1021.68 426.524 1021.74 427.332 1021.81 428.14C1021.87 428.753 1021.93 429.346 1022.05 429.948C1022.11 430.269 1022.3 430.867 1022.17 431.189C1021.99 431.591 1021.2 431.362 1020.86 431.376C1020.19 431.404 1019.52 431.521 1018.9 431.808C1018.42 432.03 1017.91 432.356 1017.71 432.906C1017.59 433.244 1017.62 433.592 1017.68 433.939C1017.75 434.357 1017.67 434.578 1017.61 434.999C1016.71 434.556 1013.6 433.572 1013.2 435.184C1013.07 435.721 1013.37 436.328 1013.6 436.781C1014 437.575 1014.52 438.301 1015.05 438.994C1016.16 440.438 1017.49 441.684 1018.92 442.749C1017.25 443.494 1016.81 445.69 1018.26 446.998C1018.9 447.576 1019.76 447.705 1020.57 447.668C1020.86 447.654 1021.29 447.541 1021.52 447.592C1021.65 447.62 1021.78 447.726 1021.96 447.738C1023.1 447.816 1024.38 447.541 1025.5 447.288C1027.48 446.838 1029.36 445.897 1030.9 444.465C1031.29 444.097 1031.62 443.886 1032.15 443.891C1032.61 443.896 1033.07 444.023 1033.53 444.035C1034.76 444.066 1035.86 443.466 1037 443.067C1037.07 444.606 1037.51 446.303 1038.14 447.688C1038.66 448.818 1039.73 448.982 1040.78 449.081C1044.15 449.398 1047.54 449.044 1050.91 449.049C1047.64 449.787 1044.27 450.092 1041.03 450.961C1039.57 451.354 1040.68 452.34 1041.31 453.024C1042.34 454.15 1043.11 455.546 1043.64 457.016C1045.24 454.932 1048.06 453.559 1050.56 454.2C1053.33 454.907 1055.28 458.646 1053.51 461.335C1052.48 462.896 1050.63 463.498 1049.09 464.169C1050.29 465.42 1050.58 467.268 1051.3 468.825C1051.66 469.592 1052.16 470.46 1052.96 470.728C1053.26 470.827 1053.6 470.835 1053.84 471.076C1054.13 471.374 1054.19 471.708 1054.56 471.964C1056.04 472.988 1058.33 472.909 1059.64 471.573C1060.82 470.366 1060.51 468.454 1059.53 467.23C1061.1 466.576 1063.95 465.735 1063.33 463.291C1066.73 463.065 1074.98 457.553 1070.42 453.525C1072.92 452.11 1075.22 448.652 1073.62 445.604C1072.38 443.256 1069.5 442.207 1067.13 442.083Z" fill="#191847"/>
<g id="Group_7">
<g id="Group_8">
<path id="Vector_16" fill-rule="evenodd" clip-rule="evenodd" d="M1098.52 617.714H1027.14L1017.79 732.278H1124.04L1098.52 617.714Z" fill="#C5CFD6"/>
<path id="Vector_17" fill-rule="evenodd" clip-rule="evenodd" d="M1098.52 617.714H1076.57L1063.43 732.278H1124.04L1098.52 617.714Z" fill="black" fill-opacity="0.1"/>
</g>
<path id="Vector_18" fill-rule="evenodd" clip-rule="evenodd" d="M945.771 598.087C938.161 593.517 925.393 599.388 925.402 605.924C925.428 625.478 943.273 717.635 944.205 723.461C945.137 729.286 955.117 730.825 955.699 723.48C956.624 711.792 958.342 671.331 956.623 652.603C955.913 644.873 955.149 637.51 954.396 630.942C963.76 647.852 978.242 672.063 997.842 703.576L1008.48 698.714C1000.13 671.186 993.275 651.751 987.928 640.411C978.772 620.994 970.188 604.365 966.574 598.508C960.891 589.295 950.998 592.51 945.771 598.087Z" fill="#B28B67"/>
<path id="Vector_19" fill-rule="evenodd" clip-rule="evenodd" d="M1007.72 683.427L971.202 596.915C962.453 582.842 937.924 599.779 940.908 607.941C947.681 626.472 982.13 686.465 984.148 691.987L1007.72 683.427Z" fill="#1F28CF"/>
<path id="Vector_20" fill-rule="evenodd" clip-rule="evenodd" d="M1009.75 693.259C1012.02 695.132 1013.5 696.661 1014.19 697.847C1015.02 699.29 1016 701.535 1017.11 704.58L971.987 730.635C968.576 727.435 968.044 724.951 970.392 723.183C972.74 721.415 974.678 719.924 976.206 718.71L991.782 697.25C992.082 696.837 992.659 696.745 993.072 697.045C993.079 697.05 993.086 697.055 993.093 697.06L996.33 699.552C999.299 699.293 1001.51 698.742 1002.98 697.897C1004.17 697.211 1005.53 695.784 1007.07 693.616L1007.07 693.616C1007.66 692.784 1008.81 692.588 1009.64 693.179C1009.68 693.204 1009.72 693.231 1009.75 693.259Z" fill="#E4E4E4"/>
<path id="Vector_21" fill-rule="evenodd" clip-rule="evenodd" d="M958.036 718.791C959.069 721.55 959.586 723.614 959.586 724.984C959.586 726.65 959.309 729.081 958.754 732.278H906.644C905.29 727.801 906.072 725.384 908.989 725.027C911.907 724.67 914.33 724.348 916.26 724.06L940.48 713.263C940.946 713.055 941.492 713.264 941.7 713.73C941.704 713.738 941.707 713.746 941.71 713.754L943.267 717.531C945.968 718.791 948.163 719.421 949.851 719.421C951.223 719.421 953.118 718.867 955.535 717.759L955.535 717.759C956.463 717.334 957.56 717.741 957.985 718.669C958.003 718.709 958.02 718.749 958.036 718.791Z" fill="#E4E4E4"/>
<path id="Vector_22" fill-rule="evenodd" clip-rule="evenodd" d="M922.842 612.571C922.842 637.116 934.499 694.37 934.506 699.775L959.586 699.794C955.915 648.707 954.614 622.888 955.681 622.338C957.283 621.512 1021.32 628.732 1040.53 628.732C1068.23 628.732 1079.69 611.266 1080.62 578.911H1025.75C1014.58 580.106 956.307 591.859 934.667 595.9C925.402 597.629 922.842 605.809 922.842 612.571Z" fill="#2B44FF"/>
</g>
<g id="Group_9">
<path id="Vector_23" fill-rule="evenodd" clip-rule="evenodd" d="M1017.2 521.352L985.134 503.788C979.801 497.456 974.547 492.537 969.371 489.034C967.79 488.373 965.024 487.974 967.61 492.564C970.197 497.155 972.711 502.1 971.393 503.514C970.075 504.929 966.79 502.953 965.218 505.303C964.17 506.87 969.783 509.344 982.058 512.727L1005.36 534.062L1017.2 521.352ZM966.977 536.171L952.891 528.433C950.914 520.912 948.552 517.128 945.803 517.081C943.691 516.098 947.369 525.601 943.366 524.777C939.363 523.953 929.592 516.687 927.909 518.162C925.418 520.345 927.639 527.047 930.256 530.381C935.146 536.612 939.195 538.743 949.203 541.534C954.436 542.993 960.093 545.917 966.175 550.307L966.977 536.171Z" fill="#997659"/>
<path id="Vector_24" fill-rule="evenodd" clip-rule="evenodd" d="M1032.82 517.439C1021.59 517.321 1006.61 514.948 990.627 504.803L984.35 518.8C995.374 529.741 1010.88 538.73 1024.43 538.349C1035.11 538.049 1040.57 525.13 1032.82 517.439Z" fill="#2026A2"/>
<path id="Vector_25" fill-rule="evenodd" clip-rule="evenodd" d="M1017.7 539.886C1005.77 542.86 985.774 539.353 957.705 529.365C950.743 543.769 947.524 554.037 948.05 560.171C972.129 572.749 992.767 578.357 1009.77 578.727C1009.23 588.816 1010.46 598.416 1014.58 607.187C1023.06 625.22 1072.72 608.52 1089.42 611.807C1099.88 577.849 1079.66 564.049 1079.64 542.321C1079.62 518.527 1060.52 481.901 1057.71 481.901H1032.07C1030.66 500.073 1023.54 520.101 1017.7 539.886Z" fill="#1F28CF"/>
</g>
</g>
</g>
<g id="&#240;&#159;&#166;&#134; icon &#34;book open outline&#34;">
<path id="Vector_26" d="M949.931 432.321C949.258 432.257 948.581 432.344 947.948 432.577C947.315 432.81 946.743 433.182 946.275 433.667L921.487 459.744L887.83 472.517C887.189 472.761 886.613 473.15 886.146 473.652C885.678 474.155 885.332 474.759 885.134 475.417C884.935 476.076 884.889 476.773 885 477.454C885.111 478.135 885.374 478.783 885.772 479.348L916.51 525.461C917.071 526.349 917.921 527.016 918.914 527.349C919.907 527.683 920.982 527.661 921.957 527.289L956.515 514.079L957.34 513.529L958.166 512.979L983.653 486.162C984.372 485.406 984.805 484.421 984.88 483.376C984.954 482.332 984.665 481.291 984.061 480.431L953.322 434.319C952.941 433.753 952.439 433.279 951.851 432.933C951.264 432.588 950.608 432.378 949.931 432.321ZM892.842 479.07L925.415 469.162L950.989 507.526L918.415 517.434L892.842 479.07ZM977.915 479.07L955.424 502.523L929.851 464.159L952.342 440.706L977.915 479.07Z" fill="white"/>
</g>
</g>
</g>
<defs>
<clipPath id="clip0_4_50">
<rect width="1280" height="920" fill="white"/>
</clipPath>
</defs>
</svg>
